<svg version="1.1" id="Layer_1" xmlns="http://www.w3.org/2000/svg" xmlns:xlink="http://www.w3.org/1999/xlink" x="0px" y="0px"
	 width="100%" viewBox="0 0 720 720" enable-background="new 0 0 720 720" xml:space="preserve">
<path fill="#02599C" opacity="1.000000" stroke="none" 
	d="
M480.000000,721.000000 
	C320.000000,721.000000 160.500000,721.000000 1.000000,721.000000 
	C1.000000,481.000000 1.000000,241.000000 1.000000,1.000000 
	C241.000000,1.000000 481.000000,1.000000 721.000000,1.000000 
	C721.000000,241.000000 721.000000,481.000000 721.000000,721.000000 
	C640.833313,721.000000 560.666687,721.000000 480.000000,721.000000 
M290.598053,581.827087 
	C332.674988,591.572388 375.035278,592.594666 417.435211,584.751404 
	C460.632050,576.760864 500.441589,560.369263 535.952881,534.172485 
	C563.571655,513.798096 586.505981,489.153198 602.993408,458.921509 
	C624.054626,420.303345 632.766418,379.175201 626.974487,335.287445 
	C621.271484,292.073181 602.851501,254.723145 574.033630,222.465240 
	C547.036011,192.244858 514.328308,170.012283 476.783936,154.694275 
	C427.126953,134.434387 375.631073,128.060226 322.612396,134.378403 
	C284.709320,138.895294 248.857574,150.379501 215.364670,168.960342 
	C188.763306,183.717972 165.245682,202.350891 145.295624,225.259171 
	C128.853989,244.138809 116.066841,265.381256 107.020889,288.804840 
	C93.388313,324.105042 89.725685,360.344452 96.723999,397.586212 
	C102.140472,426.410095 113.461937,452.772278 130.212570,476.788055 
	C132.524475,480.102692 133.058334,482.866150 131.638367,486.780090 
	C124.273109,507.081543 117.050423,527.440063 110.220947,547.926331 
	C108.702423,552.481384 107.745186,557.873474 108.653702,562.459351 
	C110.900299,573.799377 121.323753,578.816040 133.985672,575.717834 
	C161.363480,569.018799 188.738739,562.308838 216.143280,555.720886 
	C217.731964,555.339050 219.827332,555.514832 221.257889,556.257507 
	C243.052536,567.571838 265.940552,575.883240 290.598053,581.827087 
z"/>
<path fill="#FDFEFE" opacity="1.000000" stroke="none" 
	d="
M290.198303,581.709717 
	C265.940552,575.883240 243.052536,567.571838 221.257889,556.257507 
	C219.827332,555.514832 217.731964,555.339050 216.143280,555.720886 
	C188.738739,562.308838 161.363480,569.018799 133.985672,575.717834 
	C121.323753,578.816040 110.900299,573.799377 108.653702,562.459351 
	C107.745186,557.873474 108.702423,552.481384 110.220947,547.926331 
	C117.050423,527.440063 124.273109,507.081543 131.638367,486.780090 
	C133.058334,482.866150 132.524475,480.102692 130.212570,476.788055 
	C113.461937,452.772278 102.140472,426.410095 96.723999,397.586212 
	C89.725685,360.344452 93.388313,324.105042 107.020889,288.804840 
	C116.066841,265.381256 128.853989,244.138809 145.295624,225.259171 
	C165.245682,202.350891 188.763306,183.717972 215.364670,168.960342 
	C248.857574,150.379501 284.709320,138.895294 322.612396,134.378403 
	C375.631073,128.060226 427.126953,134.434387 476.783936,154.694275 
	C514.328308,170.012283 547.036011,192.244858 574.033630,222.465240 
	C602.851501,254.723145 621.271484,292.073181 626.974487,335.287445 
	C632.766418,379.175201 624.054626,420.303345 602.993408,458.921509 
	C586.505981,489.153198 563.571655,513.798096 535.952881,534.172485 
	C500.441589,560.369263 460.632050,576.760864 417.435211,584.751404 
	C375.035278,592.594666 332.674988,591.572388 290.198303,581.709717 
M524.713928,226.765640 
	C519.370361,222.827438 514.047363,218.860962 508.679718,214.955872 
	C483.862183,196.900650 456.120850,185.228760 426.501099,177.913086 
	C387.821350,168.359650 348.882660,167.340469 309.673431,174.787125 
	C272.171356,181.909531 237.878082,196.425964 207.172897,219.020233 
	C181.196762,238.134674 160.830811,262.129791 147.022171,291.457153 
	C131.497757,324.428467 127.081444,358.751312 134.682663,394.473969 
	C140.055634,419.724701 150.878815,442.499115 166.697479,462.844604 
	C172.151321,469.859070 175.044479,477.126404 171.906403,485.926636 
	C169.617218,492.346252 167.315857,498.761749 165.065933,505.195160 
	C162.102325,513.669373 159.183868,522.159302 156.008575,531.328003 
	C176.442841,526.362671 195.959305,521.695984 215.429337,516.842896 
	C221.243835,515.393555 226.547104,516.145447 231.814514,518.844788 
	C240.090302,523.085754 248.270096,527.598816 256.830231,531.186096 
	C306.359772,551.942017 357.738647,556.993286 410.421570,547.611511 
	C440.374359,542.277527 468.649353,531.808838 494.892792,516.177734 
	C529.234436,495.723175 556.590881,468.639069 574.050476,432.307404 
	C596.881042,384.799622 596.689514,337.078918 574.177551,289.601776 
	C562.616577,265.219879 545.764282,244.726059 524.713928,226.765640 
z"/>
<path fill="#03599C" opacity="1.000000" stroke="none" 
	d="
M524.965698,227.016113 
	C545.764282,244.726059 562.616577,265.219879 574.177551,289.601776 
	C596.689514,337.078918 596.881042,384.799622 574.050476,432.307404 
	C556.590881,468.639069 529.234436,495.723175 494.892792,516.177734 
	C468.649353,531.808838 440.374359,542.277527 410.421570,547.611511 
	C357.738647,556.993286 306.359772,551.942017 256.830231,531.186096 
	C248.270096,527.598816 240.090302,523.085754 231.814514,518.844788 
	C226.547104,516.145447 221.243835,515.393555 215.429337,516.842896 
	C195.959305,521.695984 176.442841,526.362671 156.008575,531.328003 
	C159.183868,522.159302 162.102325,513.669373 165.065933,505.195160 
	C167.315857,498.761749 169.617218,492.346252 171.906403,485.926636 
	C175.044479,477.126404 172.151321,469.859070 166.697479,462.844604 
	C150.878815,442.499115 140.055634,419.724701 134.682663,394.473969 
	C127.081444,358.751312 131.497757,324.428467 147.022171,291.457153 
	C160.830811,262.129791 181.196762,238.134674 207.172897,219.020233 
	C237.878082,196.425964 272.171356,181.909531 309.673431,174.787125 
	C348.882660,167.340469 387.821350,168.359650 426.501099,177.913086 
	C456.120850,185.228760 483.862183,196.900650 508.679718,214.955872 
	C514.047363,218.860962 519.370361,222.827438 524.965698,227.016113 
M435.856171,433.743439 
	C450.660431,438.603088 463.285187,435.255463 473.966675,423.906708 
	C481.866882,415.513031 486.652588,405.321228 488.650360,394.378296 
	C495.529816,356.695923 488.346741,322.753052 458.832397,296.149323 
	C446.320221,284.871063 428.193298,281.282654 412.360992,293.661102 
	C400.387756,303.022339 395.177338,316.223572 392.185242,330.390198 
	C387.609680,352.054016 390.532104,373.189636 399.008667,393.401672 
	C406.307404,410.805206 417.017578,425.564301 435.856171,433.743439 
M274.716675,289.002014 
	C270.649750,291.532867 266.248260,293.655396 262.574310,296.665863 
	C247.328278,309.158691 238.717010,325.783081 234.235321,344.619537 
	C228.236038,369.834412 228.906082,394.409241 242.860199,417.299500 
	C254.642365,436.626953 276.561157,441.503326 295.294800,428.910187 
	C308.238800,420.208954 317.123322,408.108490 322.761322,393.775055 
	C334.462555,364.027100 336.543335,334.493744 320.138702,305.429840 
	C310.959259,289.166748 293.137207,282.302917 274.716675,289.002014 
z"/>
<path fill="#FEFEFE" opacity="1.000000" stroke="none" 
	d="
M435.503113,433.565552 
	C417.017578,425.564301 406.307404,410.805206 399.008667,393.401672 
	C390.532104,373.189636 387.609680,352.054016 392.185242,330.390198 
	C395.177338,316.223572 400.387756,303.022339 412.360992,293.661102 
	C428.193298,281.282654 446.320221,284.871063 458.832397,296.149323 
	C488.346741,322.753052 495.529816,356.695923 488.650360,394.378296 
	C486.652588,405.321228 481.866882,415.513031 473.966675,423.906708 
	C463.285187,435.255463 450.660431,438.603088 435.503113,433.565552 
z"/>
<path fill="#FEFEFF" opacity="1.000000" stroke="none" 
	d="
M275.097229,288.913452 
	C293.137207,282.302917 310.959259,289.166748 320.138702,305.429840 
	C336.543335,334.493744 334.462555,364.027100 322.761322,393.775055 
	C317.123322,408.108490 308.238800,420.208954 295.294800,428.910187 
	C276.561157,441.503326 254.642365,436.626953 242.860199,417.299500 
	C228.906082,394.409241 228.236038,369.834412 234.235321,344.619537 
	C238.717010,325.783081 247.328278,309.158691 262.574310,296.665863 
	C266.248260,293.655396 270.649750,291.532867 275.097229,288.913452 
z"/>
</svg>